<?xml version="1.0"?>
<svg xmlns="http://www.w3.org/2000/svg" height="512px" viewBox="-28 0 512 512.00103" width="512px"><path d="m195.007812 329.984375c74.445313 0 135.011719-60.566406 135.011719-135.011719 0-74.445312-60.566406-135.011718-135.011719-135.011718-74.445312 0-135.011718 60.566406-135.011718 135.011718 0 74.445313 60.566406 135.011719 135.011718 135.011719zm0-240.019531c57.902344 0 105.007813 47.105468 105.007813 105.007812s-47.105469 105.007813-105.007813 105.007813c-57.902343 0-105.007812-47.105469-105.007812-105.007813s47.105469-105.007812 105.007812-105.007812zm0 0" fill="#FFFFFF"/><path d="m195.007812 269.945312c19.207032 0 38.414063-7.3125 53.039063-21.933593l-21.214844-21.214844c-17.546875 17.542969-46.097656 17.546875-63.644531 0-17.546875-17.550781-17.546875-46.101563 0-63.648437 17.546875-17.546876 46.097656-17.546876 63.644531 0l21.214844-21.214844c-29.246094-29.246094-76.832031-29.242188-106.074219 0-47.292968 47.292968-13.339844 128.011718 53.035156 128.011718zm0 0" fill="#FFFFFF"/><path d="m59.996094 335.699219v176.300781h210.019531v-62.003906h90.007813v-68.792969l30-30.003906v-27.015625l65.734374-33.421875-65.785156-100.347657c-2.796875-121.648437-114.875-211.5-236.761718-186.09375-74.035157 15.429688-133.933594 75.617188-149.046876 149.761719-13.769531 67.53125 7.070313 134.902344 55.832032 181.617188zm-26.433594-175.621094c12.753906-62.574219 63.300781-113.367187 125.769531-126.386719 105.761719-22.042968 200.691407 57.476563 200.691407 161.28125v4.480469l52.277343 79.746094-52.277343 26.582031v32.992188l-30.003907 30v51.21875h-90.007812v62.003906h-150.011719l-.003906-159.554688c-1.132813-1.707031-77.730469-57.914062-56.433594-162.363281zm0 0" fill="#FFFFFF"/></svg>
